<svg xmlns="http://www.w3.org/2000/svg" viewBox="0 0 554.07715 245.53711"><defs><style>.a{fill:#1781b2;}.b{fill:#94caea;}.c{fill:#f2cc7f;}</style></defs><title>Connection to Health</title><path class="a" d="M151.652,197.83691V122.92285h14.31885v29.88281h20.2334V122.92285h14.31836v74.91406H186.20424v-32.373h-20.2334v32.373Z"/><path class="a" d="M220.85511,172.72754v7.4707c0,5.60254,3.32031,8.09277,7.67822,8.09277,5.499,0,7.67822-3.52734,7.67822-7.88574h13.07373c-.62256,11.62109-7.57422,18.46973-20.752,18.46973-12.45117,0-20.752-7.67871-20.752-20.02637V160.37988c0-12.34766,8.30078-20.02539,20.752-20.02539,12.13965,0,20.752,7.67773,20.752,19.19531v13.17773Zm15.35645-10.584v-3.1123c0-4.98047-2.38623-8.09375-7.67822-8.09375s-7.67822,3.11328-7.67822,8.09375v3.1123Z"/><path class="a" d="M257.37513,157.88965c.93359-12.55469,10.47949-17.53516,20.95947-17.53516,13.90381,0,19.1958,7.05566,19.1958,17.12012v35.79688a16.78924,16.78924,0,0,0,.72607,4.56543H285.18275c-.31152-1.45215-.51855-3.2168-.93359-5.499A21.54493,21.54493,0,0,1,268.6847,198.875c-7.88574,0-12.96973-4.3584-12.96973-13.48926,0-13.07324,12.45117-18.67676,28.74121-23.55371v-4.15039c0-4.876-3.00879-6.74414-6.74414-6.74414a7.02323,7.02323,0,0,0-7.26318,6.95215Zm27.08105,12.34766c-7.78174,2.69727-15.66748,7.05566-15.66748,12.96973,0,3.73535,2.28271,5.91406,5.81055,5.91406,3.94287,0,6.74463-2.0752,9.85693-5.1875Z"/><path class="a" d="M306.96937,122.92285H320.0431v74.91406H306.96937Z"/><path class="a" d="M327.51185,154.46582v-10.584h5.188V128.52539h13.07373v15.35645h8.4043v10.584h-8.4043v28.84473c0,2.80176,2.38672,4.15039,5.91406,4.15039a20.88493,20.88493,0,0,0,2.59375-.10352v10.998a45.22486,45.22486,0,0,1-7.47021.51953c-8.5083,0-14.11133-3.11328-14.11133-11.20605V154.46582Z"/><path class="a" d="M362.99525,197.83691V122.92285h13.07422V147.8252c4.35742-4.15039,8.81934-7.4707,14.21484-7.4707,7.98926,0,12.13965,4.0459,12.13965,14.52637v42.95605H389.35072V156.333c0-3.73535-1.24512-6.22559-4.77344-6.22559-2.69727,0-5.70605,2.59375-8.50781,5.084v42.64551Z"/><path class="b" d="M0,133.292a38.05781,38.05781,0,0,0,38.01465,38.01563H91.73706l-2.98877,15.13062L138.772,161.42639,88.74829,136.41455l2.98889,15.13135H38.01465a18.25319,18.25319,0,0,1-.03125-36.50635l179.81982.57629V95.85309L38.01465,95.27686A38.05771,38.05771,0,0,0,0,133.292ZM516.06249,40.541h-20v19.7627h20a18.2527,18.2527,0,0,1,.03126,36.50537L294.3363,96.09833v19.76282l221.72618.71063a38.01538,38.01538,0,0,0,0-76.03076Z"/><path class="c" d="M255.10217,89.21757v8.15261H244.34423v30.98228H235.1225V97.37017H224.36456V89.21757Z"/><path class="c" d="M257.30427,104.71908c0-11.89231,6.28127-16.16879,15.23461-16.16879,8.95482,0,15.23609,4.27649,15.23609,16.16879v8.13185c0,11.89231-6.28127,16.16879-15.23609,16.16879-8.95334,0-15.23461-4.27649-15.23461-16.16879ZM266.526,114.052c0,5.34709,2.33843,6.81509,6.01288,6.81509,3.67594,0,6.01436-1.468,6.01436-6.81509V103.518c0-5.34709-2.33843-6.81509-6.01436-6.81509-3.67446,0-6.01288,1.468-6.01288,6.81509Z"/><path class="a" d="M72.33363,55.82324c0,8.30078,3.63135,10.583,9.33838,10.583s9.33838-2.28223,9.33838-10.583V50.84277h14.31885v3.1123c0,18.46973-9.75342,25.11035-23.65723,25.11035S58.01478,72.4248,58.01478,53.95508V27.18555C58.01478,8.71582,67.7682,2.0752,81.672,2.0752s23.65723,6.64063,23.65723,25.11035v.207H91.01039v-2.0752c0-8.30078-3.63135-10.583-9.33838-10.583s-9.33838,2.28223-9.33838,10.583Z"/><path class="a" d="M112.589,41.91895c0-14.94141,7.67822-21.374,20.752-21.374s20.752,6.43262,20.752,21.374V57.69043c0,14.94141-7.67822,21.375-20.752,21.375s-20.752-6.43359-20.752-21.375Zm13.07373,19.0918c0,4.3584,3.11279,6.64063,7.67822,6.64063s7.67822-2.28223,7.67822-6.64062V38.59863c0-4.35742-3.11279-6.64062-7.67822-6.64062s-7.67822,2.2832-7.67822,6.64062Z"/><path class="a" d="M162.39027,78.02734V21.582H175.049v6.43359c4.77295-4.15039,9.23438-7.4707,14.62988-7.4707,7.98975,0,12.14014,4.0459,12.14014,14.52637V78.02734H188.74525V36.52344c0-3.73535-1.24512-6.22559-4.77295-6.22559-2.69775,0-5.70654,2.59375-8.5083,5.084V78.02734Z"/><path class="a" d="M210.11634,78.02734V21.582H222.775v6.43359c4.77295-4.15039,9.23486-7.4707,14.63037-7.4707,7.98926,0,12.13965,4.0459,12.13965,14.52637V78.02734H236.47133V36.52344c0-3.73535-1.24512-6.22559-4.77295-6.22559-2.69775,0-5.707,2.59375-8.5083,5.084V78.02734Z"/><path class="a" d="M269.879,52.918v7.4707c0,5.60254,3.32031,8.09277,7.67822,8.09277,5.49951,0,7.67822-3.52734,7.67822-7.88574h13.07373c-.62256,11.62109-7.57471,18.46973-20.752,18.46973-12.45117,0-20.752-7.67871-20.752-20.02637V40.57031c0-12.34766,8.30078-20.02539,20.752-20.02539,12.14014,0,20.752,7.67773,20.752,19.19531V52.918Zm15.35645-10.584v-3.1123c0-4.98047-2.38672-8.09375-7.67822-8.09375s-7.67822,3.11328-7.67822,8.09375V42.334Z"/><path class="a" d="M333.99916,41.08887V38.59863c0-4.35742-3.11279-6.64062-7.67822-6.64062s-7.67822,2.2832-7.67822,6.64062V61.01074c0,4.3584,3.11279,6.64063,7.67822,6.64063s7.67822-2.28223,7.67822-6.64062V57.4834h13.07373v.207c0,14.94141-7.67822,21.375-20.752,21.375s-20.752-6.43359-20.752-21.375V41.91895c0-14.94141,7.67822-21.374,20.752-21.374,12.76221,0,20.44092,6.22559,20.64795,20.54395Z"/><path class="a" d="M351.84193,34.65625v-10.584h5.18848V8.71582h13.07324V24.07227h8.40527v10.584h-8.40527V63.501c0,2.80176,2.38672,4.15039,5.915,4.15039a20.88492,20.88492,0,0,0,2.59375-.10352v10.998a45.227,45.227,0,0,1-7.4707.51953c-8.50879,0-14.11133-3.11328-14.11133-11.20605V34.65625Z"/><path class="a" d="M386.91127,11.8291V0h13.07422V11.8291ZM399.98549,21.582V78.02734H386.91127V21.582Z"/><path class="a" d="M407.86927,41.91895c0-14.94141,7.67871-21.374,20.75293-21.374,13.07324,0,20.752,6.43262,20.752,21.374V57.69043c0,14.94141-7.67871,21.375-20.752,21.375-13.07422,0-20.75293-6.43359-20.75293-21.375Zm13.07422,19.0918c0,4.3584,3.1123,6.64063,7.67871,6.64063,4.56445,0,7.67773-2.28223,7.67773-6.64062V38.59863c0-4.35742-3.11328-6.64062-7.67773-6.64062-4.56641,0-7.67871,2.2832-7.67871,6.64062Z"/><path class="a" d="M456.63392,78.02734V21.582h12.6582v6.43359c4.77344-4.15039,9.23535-7.4707,14.63086-7.4707,7.98926,0,12.13965,4.0459,12.13965,14.52637V78.02734H482.98939V36.52344c0-3.73535-1.24609-6.22559-4.77344-6.22559-2.69727,0-5.707,2.59375-8.50781,5.084V78.02734Z"/><path class="a" d="M73.2057,218.41309l4.59473,11.709,4.44629-11.709h3.11279l-6.15088,15.41406V245.166H76.318V233.82715l-6.2251-15.41406Z"/><path class="a" d="M103.14515,231.78906a32.15439,32.15439,0,0,1-.53711,6.35547,13.45716,13.45716,0,0,1-1.53809,4.26074,6.32588,6.32588,0,0,1-2.38965,2.39063,6.82916,6.82916,0,0,1-6.18848,0,6.32588,6.32588,0,0,1-2.38965-2.39062,13.44525,13.44525,0,0,1-1.53809-4.26074,37.864,37.864,0,0,1,0-12.71,13.44525,13.44525,0,0,1,1.53809-4.26074,6.32588,6.32588,0,0,1,2.38965-2.39062,6.82917,6.82917,0,0,1,6.18848,0,6.32588,6.32588,0,0,1,2.38965,2.39063,13.45716,13.45716,0,0,1,1.53809,4.26074A32.15762,32.15762,0,0,1,103.14515,231.78906Zm-2.89014,0a34.6069,34.6069,0,0,0-.37061-5.59473,12.89393,12.89393,0,0,0-1.00049-3.46484,3.92239,3.92239,0,0,0-1.48242-1.75977,3.66445,3.66445,0,0,0-3.63135,0,3.91873,3.91873,0,0,0-1.48193,1.75977,12.85831,12.85831,0,0,0-1.00049,3.46484,42.42217,42.42217,0,0,0,0,11.19043,12.84746,12.84746,0,0,0,1.00049,3.46484,3.91873,3.91873,0,0,0,1.48193,1.75977,3.66445,3.66445,0,0,0,3.63135,0,3.92239,3.92239,0,0,0,1.48242-1.75977,12.883,12.883,0,0,0,1.00049-3.46484A34.60331,34.60331,0,0,0,100.255,231.78906Z"/><path class="a" d="M110.55629,218.41309v19.63867a10.88663,10.88663,0,0,0,.1665,1.92676,4.34335,4.34335,0,0,0,.61133,1.6123,3.21764,3.21764,0,0,0,1.20459,1.09277,4.85,4.85,0,0,0,3.89063,0,3.21985,3.21985,0,0,0,1.2041-1.09277,4.3354,4.3354,0,0,0,.61182-1.6123,10.88664,10.88664,0,0,0,.1665-1.92676V218.41309h2.89014V238.126a10.74649,10.74649,0,0,1-.38916,2.98242,6.19261,6.19261,0,0,1-1.22266,2.335,5.713,5.713,0,0,1-2.11182,1.53809,8.893,8.893,0,0,1-6.18848,0,5.713,5.713,0,0,1-2.11182-1.53809,6.20037,6.20037,0,0,1-1.22314-2.335,10.76526,10.76526,0,0,1-.38867-2.98242V218.41309Z"/><path class="a" d="M126.5641,218.41309h6.44727a9.04461,9.04461,0,0,1,2.9458.46289,6.64818,6.64818,0,0,1,2.33447,1.35254,6.03456,6.03456,0,0,1,1.519,2.168,7.55147,7.55147,0,0,1,.5376,2.94531,7.76613,7.76613,0,0,1-1.0376,4.02051,5.85743,5.85743,0,0,1-3.26074,2.53809l4.52051,13.26563h-3.03857l-4.29834-12.67285-3.7793.14844V245.166H126.5641Zm2.89014,11.709h2.51953q3.11279,0,4.29834-1.18555a5.6,5.6,0,0,0,0-6.89258q-1.18652-1.18506-4.29834-1.18555h-2.51953Z"/><path class="a" d="M156.76332,218.41309h6.29932a7.87117,7.87117,0,0,1,2.90869.51855,6.33278,6.33278,0,0,1,3.70557,3.79785,9.37052,9.37052,0,0,1,0,6.04,6.326,6.326,0,0,1-3.70557,3.79785,7.85141,7.85141,0,0,1-2.90869.51953h-3.40918V245.166h-2.89014Zm2.89014,12.22754H162.692a4.62595,4.62595,0,0,0,3.39063-1.18555,6.3039,6.3039,0,0,0,0-7.41113,4.63,4.63,0,0,0-3.39062-1.18555h-3.03857Z"/><path class="a" d="M181.07093,218.41309l5.8916,26.75293H184.0724l-1.59326-7.92969h-6.81836l-1.59326,7.92969h-2.89014l5.8916-26.75293ZM176.06849,234.791h6.00293l-2.96436-14.377h-.07422Z"/><path class="a" d="M200.41322,218.41309v2.44531h-5.48389V245.166H192.0392V220.8584h-5.48437v-2.44531Z"/><path class="a" d="M206.41566,218.41309v11.56055h7.85547V218.41309h2.89014V245.166h-2.89014V232.41992h-7.85547V245.166h-2.89014V218.41309Z"/><path class="a" d="M244.84144,218.41309v2.44531h-5.48389V245.166h-2.89014V220.8584H230.983v-2.44531Z"/><path class="a" d="M262.3307,231.78906a32.15438,32.15438,0,0,1-.53711,6.35547,13.45716,13.45716,0,0,1-1.53809,4.26074,6.32588,6.32588,0,0,1-2.38965,2.39063,6.82916,6.82916,0,0,1-6.18848,0,6.32588,6.32588,0,0,1-2.38965-2.39062,13.44525,13.44525,0,0,1-1.53809-4.26074,37.864,37.864,0,0,1,0-12.71,13.44525,13.44525,0,0,1,1.53809-4.26074,6.32588,6.32588,0,0,1,2.38965-2.39062,6.82917,6.82917,0,0,1,6.18848,0,6.32588,6.32588,0,0,1,2.38965,2.39063,13.45716,13.45716,0,0,1,1.53809,4.26074A32.15761,32.15761,0,0,1,262.3307,231.78906Zm-2.89014,0a34.60689,34.60689,0,0,0-.37061-5.59473,12.89393,12.89393,0,0,0-1.00049-3.46484,3.92239,3.92239,0,0,0-1.48242-1.75977,3.66445,3.66445,0,0,0-3.63135,0,3.91873,3.91873,0,0,0-1.48193,1.75977,12.85832,12.85832,0,0,0-1.00049,3.46484,42.42218,42.42218,0,0,0,0,11.19043,12.84747,12.84747,0,0,0,1.00049,3.46484,3.91873,3.91873,0,0,0,1.48193,1.75977,3.66445,3.66445,0,0,0,3.63135,0,3.92239,3.92239,0,0,0,1.48242-1.75977,12.883,12.883,0,0,0,1.00049-3.46484A34.60331,34.60331,0,0,0,259.44056,231.78906Z"/><path class="a" d="M277.59779,218.41309H284.712a5.964,5.964,0,0,1,4.65039,1.81543,6.83746,6.83746,0,0,1,1.64893,4.78027,7.10092,7.10092,0,0,1-.96338,3.64941,5.06842,5.06842,0,0,1-3.11279,2.2793v.07422a5.6049,5.6049,0,0,1,3.55762,2.42676,8.05057,8.05057,0,0,1,1.11133,4.31641q0,3.74414-2.09326,5.57715-2.094,1.834-6.50342,1.834h-5.40967Zm2.89014,11.48633h1.63037a7.68135,7.68135,0,0,0,4.57617-1.07422q1.426-1.07373,1.42676-3.81641a4.04246,4.04246,0,0,0-1.09326-3.22363,5.66277,5.66277,0,0,0-3.6499-.92676h-2.89014Zm0,12.82129h2.89014a5.87724,5.87724,0,0,0,3.9834-1.18555,4.78213,4.78213,0,0,0,1.35254-3.78027,5.834,5.834,0,0,0-1.24121-4.03809,5.29787,5.29787,0,0,0-4.09473-1.37109h-2.89014Z"/><path class="a" d="M308.72328,218.41309v2.44531h-9.33789v9.11523h6.89209v2.44629h-6.89209V242.7207h9.78223V245.166H296.49525V218.41309Z"/><path class="a" d="M324.98939,218.41309v2.44531H319.5055V245.166h-2.89014V220.8584H311.131v-2.44531Z"/><path class="a" d="M339.77406,218.41309v2.44531h-5.48389V245.166H331.4V220.8584h-5.48437v-2.44531Z"/><path class="a" d="M355.11439,218.41309v2.44531H345.777v9.11523h6.89209v2.44629H345.777V242.7207h9.78174V245.166H342.88685V218.41309Z"/><path class="a" d="M359.70912,218.41309h6.44727a9.04162,9.04162,0,0,1,2.94531.46289,6.6547,6.6547,0,0,1,2.335,1.35254,6.0274,6.0274,0,0,1,1.51855,2.168,7.54246,7.54246,0,0,1,.53809,2.94531,7.76641,7.76641,0,0,1-1.03809,4.02051,5.85409,5.85409,0,0,1-3.26074,2.53809L373.715,245.166h-3.03809l-4.29883-12.67285-3.7793.14844V245.166h-2.88965Zm2.88965,11.709h2.51953q3.11279,0,4.29883-1.18555a5.60182,5.60182,0,0,0,0-6.89258q-1.18652-1.18506-4.29883-1.18555h-2.51953Z"/><path class="a" d="M393.16908,218.41309v11.56055h7.85547V218.41309h2.88965V245.166h-2.88965V232.41992h-7.85547V245.166h-2.89062V218.41309Z"/><path class="a" d="M421.40541,218.41309v2.44531h-9.33789v9.11523h6.89063v2.44629h-6.89062V242.7207h9.78125V245.166H409.17689V218.41309Z"/><path class="a" d="M433.78041,218.41309,439.672,245.166h-2.89062l-1.59375-7.92969h-6.81738L426.7765,245.166h-2.89062l5.89258-26.75293ZM428.77748,234.791h6.00293l-2.96484-14.377h-.07324Z"/><path class="a" d="M445.71107,218.41309V242.7207h8.6709V245.166H442.82045V218.41309Z"/><path class="a" d="M467.24037,218.41309v2.44531H461.756V245.166h-2.89062V220.8584H453.382v-2.44531Z"/><path class="a" d="M473.24232,218.41309v11.56055h7.85547V218.41309h2.89063V245.166h-2.89062V232.41992h-7.85547V245.166H470.3517V218.41309Z"/></svg>
